<svg width="700" height="450" viewBox="0 0 700 450" xmlns="http://www.w3.org/2000/svg">
  <!-- Background -->
  <rect width="700" height="450" fill="#e8f5e8"/>
  
  <!-- Ground line -->
  <line x1="0" y1="380" x2="700" y2="380" stroke="#8B4513" stroke-width="2"/>
  
  <!-- Main platform (12ft x 16ft) -->
  <rect x="120" y="250" width="240" height="160" fill="#4A5568" stroke="#2D3748" stroke-width="2" rx="5"/>
  
  <!-- Platform frame -->
  <rect x="125" y="255" width="230" height="150" fill="none" stroke="#CBD5E0" stroke-width="1"/>
  
  <!-- Water tanks (1000+ gallons - 5 large tanks) -->
  <rect x="135" y="265" width="40" height="60" fill="#4299E1" stroke="#2B6CB0" stroke-width="1" rx="3"/>
  <rect x="180" y="265" width="40" height="60" fill="#4299E1" stroke="#2B6CB0" stroke-width="1" rx="3"/>
  <rect x="225" y="265" width="40" height="60" fill="#4299E1" stroke="#2B6CB0" stroke-width="1" rx="3"/>
  <rect x="270" y="265" width="40" height="60" fill="#4299E1" stroke="#2B6CB0" stroke-width="1" rx="3"/>
  <rect x="315" y="265" width="40" height="60" fill="#4299E1" stroke="#2B6CB0" stroke-width="1" rx="3"/>
  <text x="240" y="340" font-family="Arial, sans-serif" font-size="11" text-anchor="middle" fill="#2B6CB0">1000+ gallons (5 tanks)</text>
  
  <!-- Massive solar array (2000W+) -->
  <rect x="135" y="330" width="220" height="35" fill="#1A202C" stroke="#4A5568" stroke-width="1" rx="2"/>
  <g stroke="#4299E1" stroke-width="0.5">
    <line x1="145" y1="335" x2="145" y2="360"/>
    <line x1="160" y1="335" x2="160" y2="360"/>
    <line x1="175" y1="335" x2="175" y2="360"/>
    <line x1="190" y1="335" x2="190" y2="360"/>
    <line x1="205" y1="335" x2="205" y2="360"/>
    <line x1="220" y1="335" x2="220" y2="360"/>
    <line x1="235" y1="335" x2="235" y2="360"/>
    <line x1="250" y1="335" x2="250" y2="360"/>
    <line x1="265" y1="335" x2="265" y2="360"/>
    <line x1="280" y1="335" x2="280" y2="360"/>
    <line x1="295" y1="335" x2="295" y2="360"/>
    <line x1="310" y1="335" x2="310" y2="360"/>
    <line x1="325" y1="335" x2="325" y2="360"/>
    <line x1="340" y1="335" x2="340" y2="360"/>
  </g>
  <text x="245" y="380" font-family="Arial, sans-serif" font-size="11" text-anchor="middle" fill="#2D3748">2000W+ Solar Array</text>
  
  <!-- Central command center -->
  <rect x="365" y="260" width="25" height="45" fill="#E53E3E" stroke="#C53030" stroke-width="1" rx="2"/>
  <circle cx="377" cy="250" r="10" fill="#F56565" stroke="#E53E3E" stroke-width="1"/>
  <circle cx="377" cy="238" r="6" fill="#FED7D7" stroke="#F56565" stroke-width="1"/>
  <text x="377" y="320" font-family="Arial, sans-serif" font-size="9" text-anchor="middle" fill="#C53030">Command</text>
  <text x="377" y="330" font-family="Arial, sans-serif" font-size="9" text-anchor="middle" fill="#C53030">Center</text>
  
  <!-- Industrial feed systems -->
  <rect x="365" y="310" width="25" height="25" fill="#38A169" stroke="#2F855A" stroke-width="1" rx="2"/>
  <circle cx="377" cy="322" r="4" fill="#68D391"/>
  <circle cx="370" cy="315" r="2" fill="#68D391"/>
  <circle cx="384" cy="315" r="2" fill="#68D391"/>
  <text x="377" y="350" font-family="Arial, sans-serif" font-size="8" text-anchor="middle" fill="#2F855A">Industrial</text>
  <text x="377" y="360" font-family="Arial, sans-serif" font-size="8" text-anchor="middle" fill="#2F855A">Feed</text>
  
  <!-- Advanced predator/security -->
  <rect x="365" y="340" width="25" height="20" fill="#F56565" stroke="#E53E3E" stroke-width="1" rx="2"/>
  <polygon points="370,345 375,350 380,345 377,355 373,355" fill="#FEB2B2"/>
  <text x="377" y="375" font-family="Arial, sans-serif" font-size="8" text-anchor="middle" fill="#E53E3E">Security</text>
  
  <!-- Environmental monitoring -->
  <rect x="365" y="365" width="25" height="15" fill="#4299E1" stroke="#2B6CB0" stroke-width="1" rx="2"/>
  <circle cx="372" cy="372" r="2" fill="#90CDF4"/>
  <circle cx="382" cy="372" r="2" fill="#90CDF4"/>
  <text x="377" y="395" font-family="Arial, sans-serif" font-size="8" text-anchor="middle" fill="#2B6CB0">Enviro</text>
  
  <!-- Large comfort shelter -->
  <polygon points="115,245 160,220 310,220 365,245 365,250 115,250" fill="#805AD5" stroke="#6B46C1" stroke-width="2"/>
  <rect x="180" y="225" width="120" height="8" fill="#A78BFA" stroke="#7C3AED" stroke-width="1"/>
  <text x="240" y="240" font-family="Arial, sans-serif" font-size="10" text-anchor="middle" fill="#E2E8F0">Large Comfort Shelter</text>
  
  <!-- Wheels (8 massive flotation tires) -->
  <circle cx="85" cy="410" r="30" fill="#2D3748" stroke="#1A202C" stroke-width="3"/>
  <circle cx="140" cy="410" r="30" fill="#2D3748" stroke="#1A202C" stroke-width="3"/>
  <circle cx="320" cy="410" r="30" fill="#2D3748" stroke="#1A202C" stroke-width="3"/>
  <circle cx="375" cy="410" r="30" fill="#2D3748" stroke="#1A202C" stroke-width="3"/>
  <circle cx="190" cy="420" r="22" fill="#2D3748" stroke="#1A202C" stroke-width="2"/>
  <circle cx="220" cy="420" r="22" fill="#2D3748" stroke="#1A202C" stroke-width="2"/>
  <circle cx="250" cy="420" r="22" fill="#2D3748" stroke="#1A202C" stroke-width="2"/>
  <circle cx="280" cy="420" r="22" fill="#2D3748" stroke="#1A202C" stroke-width="2"/>
  
  <!-- Labels -->
  <text x="350" y="45" font-family="Arial, sans-serif" font-size="24" font-weight="bold" text-anchor="middle" fill="#2D3748">Enterprise Tier - $7,995</text>
  <text x="350" y="67" font-family="Arial, sans-serif" font-size="18" text-anchor="middle" fill="#4A5568">12ft x 16ft Platform</text>
  <text x="350" y="87" font-family="Arial, sans-serif" font-size="18" text-anchor="middle" fill="#4A5568">750+ Animals</text>
  <text x="350" y="107" font-family="Arial, sans-serif" font-size="18" text-anchor="middle" fill="#4A5568">5,000 lbs dry + 8,000+ lbs water</text>
  
  <!-- Specifications -->
  <text x="20" y="150" font-family="Arial, sans-serif" font-size="13" fill="#2D3748">Enterprise Features:</text>
  <text x="20" y="170" font-family="Arial, sans-serif" font-size="12" fill="#4A5568">• 5-tank water system (1000+ gallons)</text>
  <text x="20" y="188" font-family="Arial, sans-serif" font-size="12" fill="#4A5568">• 2000W+ solar array</text>
  <text x="20" y="206" font-family="Arial, sans-serif" font-size="12" fill="#4A5568">• Central command center</text>
  <text x="20" y="224" font-family="Arial, sans-serif" font-size="12" fill="#4A5568">• Industrial feed systems</text>
  <text x="20" y="242" font-family="Arial, sans-serif" font-size="12" fill="#4A5568">• Advanced security & predator protection</text>
  <text x="20" y="260" font-family="Arial, sans-serif" font-size="12" fill="#4A5568">• Environmental monitoring station</text>
  <text x="20" y="278" font-family="Arial, sans-serif" font-size="12" fill="#4A5568">• Large comfort shelter</text>
  <text x="20" y="296" font-family="Arial, sans-serif" font-size="12" fill="#4A5568">• 8 massive flotation tires</text>
  <text x="20" y="314" font-family="Arial, sans-serif" font-size="12" fill="#4A5568">• Multi-herd management capability</text>
</svg>